<svg xmlns="http://www.w3.org/2000/svg" xmlns:xlink="http://www.w3.org/1999/xlink" width="75" zoomAndPan="magnify" viewBox="0 0 56.25 56.249997" height="75" preserveAspectRatio="xMidYMid meet" version="1.0"><defs><clipPath id="id1"><path d="M 10.316406 5.550781 L 45 5.550781 L 45 49.957031 L 10.316406 49.957031 Z M 10.316406 5.550781 " clip-rule="nonzero"/></clipPath></defs><g clip-path="url(#id1)"><path fill="rgb(90.19928%, 44.309998%, 61.959839%)" d="M 42.160156 44.796875 C 40.953125 43.375 40.695312 41.378906 40.882812 39.570312 C 41.109375 37.40625 42.019531 35.382812 42.742188 33.347656 C 43.109375 32.3125 43.441406 31.257812 43.605469 30.171875 C 43.761719 29.105469 43.796875 28.035156 43.710938 26.960938 C 43.546875 24.777344 42.953125 22.632812 42.144531 20.59375 C 42.046875 20.34375 41.945312 20.097656 41.839844 19.851562 C 41.832031 19.832031 41.820312 19.816406 41.804688 19.800781 C 41.929688 19.621094 42.035156 19.429688 42.128906 19.230469 C 42.671875 18.058594 42.640625 16.722656 42.523438 15.464844 C 42.429688 14.289062 42.265625 13.125 42.035156 11.96875 C 41.796875 10.859375 41.4375 9.757812 40.847656 8.78125 C 40.554688 8.296875 40.203125 7.855469 39.800781 7.457031 C 39.394531 7.058594 38.945312 6.71875 38.453125 6.4375 C 37.960938 6.152344 37.441406 5.9375 36.894531 5.789062 C 36.347656 5.636719 35.789062 5.558594 35.222656 5.550781 C 34.085938 5.546875 33.019531 5.820312 32.023438 6.367188 C 31.535156 6.632812 31.085938 6.957031 30.675781 7.335938 C 30.476562 7.519531 30.292969 7.71875 30.117188 7.925781 C 29.929688 8.148438 29.769531 8.386719 29.597656 8.621094 C 29.453125 8.835938 29.269531 9.003906 29.039062 9.125 L 29.003906 9.144531 L 28.9375 9.167969 C 28.882812 9.1875 28.828125 9.199219 28.773438 9.210938 L 28.738281 9.21875 L 28.714844 9.21875 L 28.667969 9.222656 C 28.609375 9.230469 28.550781 9.230469 28.496094 9.230469 C 28.28125 9.226562 28.070312 9.195312 27.867188 9.132812 C 27.628906 9.074219 27.394531 8.996094 27.160156 8.921875 C 26.683594 8.769531 26.199219 8.617188 25.695312 8.609375 C 25.214844 8.597656 24.789062 8.746094 24.417969 9.054688 C 23.71875 9.632812 23.488281 10.644531 23.609375 11.507812 C 23.753906 12.554688 24.503906 13.402344 25.304688 14.027344 C 25.753906 14.371094 26.21875 14.6875 26.703125 14.976562 C 27.285156 15.335938 27.871094 15.695312 28.453125 16.054688 L 30.25 17.152344 C 30.472656 17.289062 30.753906 17.425781 30.894531 17.640625 C 31.039062 17.855469 31.019531 18.136719 30.972656 18.386719 C 30.886719 18.8125 30.753906 19.222656 30.582031 19.621094 L 30.582031 19.628906 L 30.535156 19.738281 C 30.507812 19.796875 30.484375 19.855469 30.457031 19.914062 C 30.40625 20.023438 30.351562 20.136719 30.296875 20.246094 C 30.1875 20.472656 30.066406 20.699219 29.941406 20.917969 C 29.445312 21.8125 28.871094 22.65625 28.222656 23.445312 C 27.960938 23.761719 27.679688 24.0625 27.378906 24.34375 C 27.269531 24.457031 27.269531 24.566406 27.378906 24.679688 C 27.488281 24.789062 27.601562 24.789062 27.710938 24.679688 C 28.386719 24.058594 28.957031 23.316406 29.476562 22.5625 C 30.058594 21.734375 30.554688 20.855469 30.964844 19.929688 C 31.144531 19.535156 31.285156 19.125 31.390625 18.703125 C 31.4375 18.527344 31.464844 18.351562 31.476562 18.171875 C 32.695312 18.253906 33.914062 18.253906 35.132812 18.175781 C 35.480469 18.152344 35.828125 18.125 36.175781 18.089844 C 36.28125 18.828125 36.566406 19.488281 37.027344 20.074219 C 37.703125 20.902344 38.757812 21.421875 39.832031 21.214844 C 40.476562 21.089844 41.042969 20.714844 41.480469 20.226562 C 42.296875 22.164062 42.929688 24.214844 43.175781 26.308594 C 43.300781 27.367188 43.316406 28.425781 43.214844 29.488281 C 43.109375 30.574219 42.828125 31.621094 42.480469 32.652344 C 41.792969 34.710938 40.855469 36.714844 40.503906 38.871094 C 40.207031 40.695312 40.304688 42.683594 41.242188 44.3125 C 41.691406 45.089844 42.335938 45.679688 42.972656 46.292969 C 43.519531 46.820312 44.164062 47.433594 44.292969 48.222656 C 44.316406 48.355469 44.320312 48.484375 44.304688 48.617188 C 43.28125 48.894531 42.242188 49.105469 41.191406 49.253906 C 40.648438 49.328125 40.101562 49.386719 39.550781 49.425781 C 39.03125 49.460938 38.496094 49.511719 37.976562 49.472656 C 37.78125 49.472656 37.605469 49.414062 37.449219 49.296875 C 37.289062 49.160156 37.242188 48.933594 37.214844 48.726562 C 37.132812 48.183594 37.097656 47.628906 37.042969 47.082031 L 36.691406 43.621094 C 36.464844 41.410156 36.257812 39.195312 36.011719 36.984375 C 35.820312 35.3125 35.570312 33.625 34.980469 32.042969 C 34.414062 30.507812 33.496094 29.097656 32.109375 28.1875 C 30.59375 27.191406 28.699219 26.980469 26.949219 27.3125 C 25.128906 27.65625 23.507812 28.601562 22.175781 29.871094 C 20.824219 31.164062 19.78125 32.753906 18.925781 34.414062 C 17.972656 36.277344 17.210938 38.21875 16.644531 40.238281 C 16.066406 42.28125 15.695312 44.363281 15.53125 46.480469 C 15.5 46.898438 15.476562 47.3125 15.460938 47.730469 C 14.804688 47.523438 14.191406 47.1875 13.765625 46.628906 C 13.335938 46.070312 13.121094 45.394531 13.042969 44.71875 C 12.949219 43.890625 13.066406 43.054688 13.246094 42.25 C 13.441406 41.371094 13.695312 40.507812 13.894531 39.632812 C 14.296875 37.847656 14.5625 36.046875 14.691406 34.222656 C 14.753906 33.34375 14.792969 32.457031 14.773438 31.574219 C 14.757812 30.78125 14.671875 29.964844 14.375 29.226562 C 14.105469 28.523438 13.65625 27.976562 13.023438 27.578125 C 12.457031 27.230469 11.75 27.0625 11.097656 27.230469 C 10.933594 27.277344 10.78125 27.335938 10.632812 27.417969 C 10.363281 27.5625 10.601562 27.972656 10.871094 27.828125 C 11.132812 27.6875 11.414062 27.625 11.710938 27.636719 C 12.007812 27.65625 12.292969 27.730469 12.5625 27.863281 C 13.167969 28.164062 13.605469 28.625 13.875 29.25 C 14.191406 29.945312 14.277344 30.726562 14.300781 31.484375 C 14.324219 32.347656 14.285156 33.21875 14.226562 34.082031 C 14.109375 35.875 13.851562 37.648438 13.460938 39.402344 C 13.265625 40.273438 13.015625 41.132812 12.816406 42.003906 C 12.625 42.824219 12.488281 43.679688 12.554688 44.527344 C 12.609375 45.257812 12.800781 45.996094 13.191406 46.625 C 13.621094 47.296875 14.210938 47.769531 14.957031 48.046875 C 15.136719 48.121094 15.320312 48.179688 15.507812 48.230469 C 15.539062 48.242188 15.570312 48.242188 15.605469 48.238281 C 15.628906 48.25 15.660156 48.257812 15.6875 48.257812 C 19.320312 48.625 22.957031 48.722656 26.605469 48.554688 C 27.050781 48.535156 27.496094 48.511719 27.9375 48.484375 C 28.28125 48.46875 28.617188 48.425781 28.953125 48.355469 C 29.613281 48.203125 30.320312 47.773438 30.480469 47.0625 C 30.550781 46.765625 30.515625 46.484375 30.375 46.214844 C 30.238281 45.945312 30.03125 45.75 29.753906 45.632812 C 29.324219 45.441406 28.851562 45.414062 28.410156 45.265625 C 28.234375 45.210938 28.082031 45.117188 27.960938 44.980469 C 27.765625 44.734375 27.777344 44.410156 27.835938 44.117188 C 28.007812 43.289062 28.273438 42.484375 28.527344 41.679688 C 28.984375 40.222656 29.386719 38.730469 29.148438 37.199219 C 29.011719 36.308594 28.617188 35.367188 27.953125 34.726562 C 28.121094 34.421875 28.265625 34.109375 28.394531 33.789062 C 28.535156 33.445312 28.65625 33.09375 28.777344 32.742188 C 28.878906 32.453125 28.421875 32.328125 28.320312 32.617188 C 28.117188 33.207031 27.898438 33.847656 27.59375 34.429688 C 27.433594 34.316406 27.265625 34.222656 27.085938 34.144531 C 26.054688 33.714844 24.710938 33.953125 23.921875 34.757812 C 23.535156 35.160156 23.148438 35.863281 23.570312 36.371094 C 23.773438 36.613281 24.15625 36.734375 24.460938 36.785156 C 24.816406 36.84375 25.167969 36.835938 25.519531 36.757812 C 26.492188 36.550781 27.191406 35.917969 27.707031 35.136719 C 28.253906 35.707031 28.566406 36.535156 28.6875 37.289062 C 28.917969 38.695312 28.53125 40.089844 28.113281 41.425781 C 27.878906 42.179688 27.628906 42.929688 27.449219 43.703125 C 27.363281 44.085938 27.273438 44.464844 27.378906 44.84375 C 27.441406 45.074219 27.558594 45.269531 27.734375 45.425781 C 28.078125 45.722656 28.53125 45.800781 28.957031 45.890625 C 29.335938 45.972656 29.757812 46.0625 29.953125 46.40625 C 30.289062 47 29.71875 47.589844 29.195312 47.800781 C 28.554688 48.054688 27.808594 48.03125 27.132812 48.066406 C 23.722656 48.246094 20.316406 48.195312 16.917969 47.910156 C 16.589844 47.882812 16.261719 47.851562 15.933594 47.820312 C 16.082031 43.644531 17.023438 39.65625 18.753906 35.855469 C 19.53125 34.160156 20.453125 32.503906 21.675781 31.085938 C 22.863281 29.714844 24.339844 28.574219 26.085938 28.019531 C 27.734375 27.496094 29.609375 27.457031 31.199219 28.214844 C 32.671875 28.921875 33.695312 30.222656 34.339844 31.699219 C 34.996094 33.21875 35.285156 34.882812 35.484375 36.515625 C 35.742188 38.644531 35.929688 40.78125 36.148438 42.914062 C 36.261719 44.046875 36.375 45.179688 36.492188 46.3125 C 36.550781 46.882812 36.609375 47.453125 36.667969 48.023438 C 36.714844 48.492188 36.695312 49.066406 36.976562 49.464844 C 37.246094 49.847656 37.710938 49.945312 38.15625 49.953125 C 38.6875 49.957031 39.222656 49.917969 39.753906 49.878906 C 40.855469 49.792969 41.949219 49.636719 43.03125 49.40625 C 43.554688 49.296875 44.070312 49.171875 44.585938 49.027344 C 44.671875 49.003906 44.726562 48.949219 44.75 48.859375 C 45.058594 47.0625 43.160156 45.980469 42.160156 44.796875 Z M 41.066406 19.96875 C 40.742188 20.324219 40.347656 20.570312 39.886719 20.710938 C 39.421875 20.835938 38.96875 20.808594 38.523438 20.625 C 38.074219 20.4375 37.695312 20.152344 37.386719 19.769531 C 37.0625 19.371094 36.835938 18.921875 36.714844 18.421875 C 36.40625 17.222656 36.625 15.953125 36.925781 14.773438 C 37.234375 13.578125 37.660156 12.425781 38.214844 11.320312 C 38.480469 10.785156 38.777344 10.261719 39.097656 9.757812 C 39.261719 9.496094 38.851562 9.257812 38.6875 9.515625 C 38.003906 10.597656 37.441406 11.742188 37 12.945312 C 36.78125 13.535156 36.597656 14.136719 36.445312 14.746094 C 36.28125 15.378906 36.167969 16.019531 36.113281 16.671875 C 36.089844 16.988281 36.089844 17.308594 36.113281 17.625 C 34.867188 17.75 33.617188 17.792969 32.367188 17.746094 C 32.054688 17.738281 31.742188 17.71875 31.433594 17.699219 C 31.359375 17.453125 31.21875 17.25 31.015625 17.097656 C 30.757812 16.910156 30.492188 16.738281 30.214844 16.582031 L 29.34375 16.046875 L 27.582031 14.960938 C 26.640625 14.382812 25.644531 13.832031 24.894531 13.011719 C 24.722656 12.828125 24.570312 12.628906 24.441406 12.414062 C 24.371094 12.296875 24.308594 12.179688 24.25 12.058594 C 24.242188 12.039062 24.230469 12.019531 24.226562 12 C 24.226562 11.992188 24.207031 11.957031 24.207031 11.949219 C 24.1875 11.902344 24.167969 11.855469 24.152344 11.800781 C 24.125 11.695312 24.097656 11.59375 24.078125 11.488281 C 24.078125 11.464844 24.070312 11.441406 24.070312 11.417969 L 24.066406 11.378906 C 24.058594 11.324219 24.054688 11.269531 24.050781 11.214844 C 24.046875 11.109375 24.046875 11 24.050781 10.894531 C 24.050781 10.84375 24.058594 10.792969 24.066406 10.742188 C 24.0625 10.734375 24.0625 10.726562 24.066406 10.714844 L 24.066406 10.703125 C 24.070312 10.671875 24.074219 10.644531 24.082031 10.609375 C 24.097656 10.507812 24.121094 10.40625 24.152344 10.308594 C 24.167969 10.257812 24.1875 10.207031 24.203125 10.160156 L 24.226562 10.097656 C 24.234375 10.082031 24.242188 10.070312 24.246094 10.054688 C 24.289062 9.960938 24.339844 9.871094 24.394531 9.785156 C 24.417969 9.746094 24.445312 9.707031 24.472656 9.667969 C 24.476562 9.664062 24.480469 9.660156 24.480469 9.660156 L 24.488281 9.648438 L 24.542969 9.582031 C 24.609375 9.507812 24.683594 9.441406 24.757812 9.378906 L 24.769531 9.371094 L 24.777344 9.363281 C 24.800781 9.347656 24.820312 9.335938 24.839844 9.320312 C 24.882812 9.292969 24.929688 9.265625 24.976562 9.238281 C 24.996094 9.230469 25.015625 9.21875 25.035156 9.210938 L 25.0625 9.199219 C 25.109375 9.179688 25.160156 9.164062 25.207031 9.148438 C 25.257812 9.132812 25.300781 9.121094 25.351562 9.113281 L 25.402344 9.105469 L 25.4375 9.105469 C 25.457031 9.105469 25.476562 9.105469 25.496094 9.097656 C 25.964844 9.0625 26.386719 9.1875 26.84375 9.332031 C 27.300781 9.472656 27.765625 9.640625 28.25 9.695312 C 28.742188 9.765625 29.183594 9.644531 29.574219 9.335938 C 29.792969 9.136719 29.980469 8.910156 30.136719 8.660156 C 30.289062 8.445312 30.453125 8.242188 30.628906 8.046875 C 31.355469 7.257812 32.222656 6.691406 33.238281 6.347656 C 34.25 6.003906 35.28125 5.933594 36.332031 6.140625 C 37.398438 6.355469 38.347656 6.816406 39.175781 7.523438 C 39.992188 8.25 40.597656 9.121094 40.992188 10.140625 C 41.414062 11.175781 41.644531 12.277344 41.804688 13.382812 C 41.886719 13.925781 41.949219 14.484375 42.003906 15.039062 C 42.082031 15.671875 42.121094 16.308594 42.121094 16.945312 C 42.121094 17.5625 42.019531 18.164062 41.820312 18.75 C 41.652344 19.207031 41.402344 19.613281 41.066406 19.96875 Z M 26.195312 35.996094 C 25.671875 36.296875 25.019531 36.445312 24.421875 36.292969 C 24.191406 36.234375 23.8125 36.121094 23.851562 35.8125 C 23.898438 35.601562 23.988281 35.410156 24.125 35.242188 C 24.730469 34.453125 25.9375 34.21875 26.839844 34.554688 C 27.023438 34.621094 27.199219 34.714844 27.355469 34.832031 C 27.066406 35.316406 26.679688 35.707031 26.195312 35.996094 Z M 26.195312 35.996094 " fill-opacity="1" fill-rule="nonzero"/></g></svg>